<svg width="488" height="231" viewBox="0 0 488 231" fill="none" xmlns="http://www.w3.org/2000/svg">
<path d="M121.952 104.854C122.639 104.03 123.806 103.618 125.454 103.618C127.239 103.618 128.681 104.236 129.78 105.472C130.879 106.708 131.428 109.043 131.428 112.476C131.428 115.909 130.261 120.51 127.926 126.278C125.729 131.909 122.433 137.608 118.038 143.376C113.643 149.007 107.532 153.676 99.704 157.384C92.0133 161.092 83.3613 162.946 73.7479 162.946C51.4999 162.946 33.6466 155.805 20.1879 141.522C6.72928 127.102 -5.58794e-05 106.639 -5.58794e-05 80.134C-5.58794e-05 53.4913 6.31728 33.5093 18.9519 20.188C31.7239 6.72934 48.4099 3.93391e-06 69.0099 3.93391e-06C82.3313 3.93391e-06 92.7686 3.43334 100.322 10.3C107.875 17.1667 111.652 24.7887 111.652 33.166C111.652 36.5993 110.622 39.346 108.562 41.406C106.502 43.466 104.442 44.496 102.382 44.496C98.5366 44.496 95.9273 43.672 94.5539 42.024C95.378 39.964 95.79 37.4233 95.79 34.402C95.79 26.986 93.3866 21.0807 88.5799 16.686C83.9106 12.2913 77.0439 10.094 67.9799 10.094C54.3839 10.094 42.7793 16.6173 33.1659 29.664C23.6899 42.5733 18.9519 59.74 18.9519 81.164C18.9519 102.588 24.2393 119.892 34.8139 133.076C45.3886 146.123 58.0919 152.646 72.9239 152.646C87.7559 152.646 99.6353 148.183 108.562 139.256C117.489 130.192 121.952 118.725 121.952 104.854ZM182.965 64.684C184.75 60.7013 187.566 58.71 191.411 58.71C195.394 58.71 198.346 59.6713 200.269 61.594V120.716C200.269 128.544 201.505 134.449 203.977 138.432C206.449 142.415 209.814 144.406 214.071 144.406C226.98 144.406 233.435 131.016 233.435 104.236C233.572 103.412 234.602 103 236.525 103C238.997 103 240.233 106.639 240.233 113.918C240.233 125.591 237.692 134.93 232.611 141.934C227.667 148.938 220.663 152.44 211.599 152.44C197.728 152.44 188.527 146.329 183.995 134.106C181.386 139.737 177.815 144.2 173.283 147.496C168.751 150.792 163.601 152.44 157.833 152.44C133.8 152.44 121.783 136.715 121.783 105.266C121.783 89.3353 125.491 77.5933 132.907 70.04C140.46 62.4867 150.417 58.71 162.777 58.71C172.253 58.71 178.982 60.7013 182.965 64.684ZM144.237 130.604C146.16 136.647 148.357 140.492 150.829 142.14C153.301 143.651 156.597 144.406 160.717 144.406C164.837 144.406 169.3 141.865 174.107 136.784C179.051 131.565 181.523 124.836 181.523 116.596V88.374C181.523 81.9193 179.806 76.7007 176.373 72.718C173.077 68.7353 169.3 66.744 165.043 66.744C160.923 66.744 157.627 67.156 155.155 67.98C152.683 68.804 150.348 70.5207 148.151 73.13C143.619 78.074 141.353 88.786 141.353 105.266C141.353 116.115 142.314 124.561 144.237 130.604ZM313.97 76.22C318.502 84.048 320.768 94.6227 320.768 107.944C320.768 121.128 317.403 131.84 310.674 140.08C304.082 148.183 295.43 152.234 284.718 152.234C278.4 152.234 272.77 150.037 267.826 145.642C263.019 141.247 260.616 134.243 260.616 124.63C260.616 102.107 271.808 85.284 294.194 74.16C290.623 69.216 285.61 66.744 279.156 66.744C272.838 66.744 266.796 69.9027 261.028 76.22C255.26 82.5373 252.376 92.0133 252.376 104.648V227.218C251.002 229.141 248.599 230.102 245.166 230.102C241.732 230.102 238.986 229.003 236.926 226.806C234.866 224.746 233.836 221.656 233.836 217.536V61.594C235.209 59.6713 237.612 58.71 241.046 58.71C244.479 58.71 247.226 59.8087 249.286 62.006C251.346 64.066 252.376 67.156 252.376 71.276V75.808C259.517 64.4093 268.924 58.71 280.598 58.71C292.408 58.71 301.61 62.006 308.202 68.598C322.622 63.9287 338.758 61.594 356.612 61.594C360.32 61.594 362.174 63.1047 362.174 66.126L360.938 69.216C344.32 69.216 328.664 71.5507 313.97 76.22ZM284.306 144.2C295.567 144.2 301.198 133.007 301.198 110.622C301.198 98.8113 300.236 89.5413 298.314 82.812C280.186 92.7 271.122 106.845 271.122 125.248C271.122 131.291 272.426 135.96 275.036 139.256C277.645 142.552 280.735 144.2 284.306 144.2ZM348.336 38.522C346.002 36.1873 344.834 33.3033 344.834 29.87C344.834 26.4367 346.002 23.5527 348.336 21.218C350.671 18.746 353.555 17.51 356.988 17.51C360.422 17.51 363.306 18.746 365.64 21.218C368.112 23.5527 369.348 26.4367 369.348 29.87C369.348 33.3033 368.112 36.1873 365.64 38.522C363.306 40.8567 360.422 42.024 356.988 42.024C353.555 42.024 350.671 40.8567 348.336 38.522ZM347.512 71.276C347.512 67.156 348.542 64.066 350.602 62.006C352.662 59.8087 355.272 58.71 358.43 58.71C361.589 58.71 364.13 59.6713 366.052 61.594V120.716C366.052 128.544 367.563 134.449 370.584 138.432C373.606 142.415 377.726 144.406 382.944 144.406C388.163 144.406 393.038 141.247 397.57 134.93C402.102 128.613 404.368 118.381 404.368 104.236C404.643 103.412 405.673 103 407.458 103C409.93 103 411.166 106.639 411.166 113.918C411.166 124.493 408.282 133.557 402.514 141.11C396.746 148.663 389.399 152.44 380.472 152.44C369.348 152.44 361.04 149.144 355.546 142.552C350.19 135.96 347.512 126.621 347.512 114.536V71.276ZM446.444 58.71C458.666 58.71 468.623 62.7613 476.314 70.864C484.004 78.9667 487.85 90.022 487.85 104.03C487.85 117.901 484.21 129.437 476.932 138.638C469.79 147.839 460.177 152.44 448.092 152.44C436.006 152.44 425.912 148.32 417.81 140.08C409.844 131.703 405.862 120.167 405.862 105.472C405.862 90.64 409.57 79.1727 416.986 71.07C424.539 62.83 434.358 58.71 446.444 58.71ZM446.65 66.744C442.942 66.744 439.714 67.7053 436.968 69.628C434.358 71.4133 433.054 74.0227 433.054 77.456C433.054 86.2453 436.487 94.6913 443.354 102.794C450.22 110.759 458.392 116.047 467.868 118.656C468.142 113.437 468.28 108.974 468.28 105.266C468.28 90.9833 466.769 81.0267 463.748 75.396C460.726 69.628 455.027 66.744 446.65 66.744ZM425.432 105.266C425.432 119.274 427.148 129.299 430.582 135.342C434.152 141.385 439.92 144.406 447.886 144.406C453.379 144.406 457.568 143.033 460.452 140.286C463.473 137.402 465.533 132.801 466.632 126.484C457.705 124.561 449.465 120.51 441.912 114.33C434.496 108.15 429.071 101.283 425.638 93.73C425.5 96.0647 425.432 99.91 425.432 105.266Z" fill="#213028"/>
</svg>
