<svg width="1080" height="446" viewBox="0 0 1080 446" fill="none" xmlns="http://www.w3.org/2000/svg">
<path d="M536.968 203.691C533.2 207.459 528.706 210.394 523.488 212.496C518.306 214.598 512.635 215.649 506.475 215.649C500.351 215.649 494.68 214.598 489.462 212.496C484.244 210.394 479.715 207.441 475.874 203.636C472.033 199.795 469.043 195.302 466.905 190.156C464.804 184.975 463.753 179.34 463.753 173.252C463.753 167.128 464.804 161.494 466.905 156.348C469.043 151.202 472.033 146.727 475.874 142.922C479.715 139.081 484.244 136.11 489.462 134.008C494.68 131.907 500.351 130.856 506.475 130.856C512.599 130.856 518.252 131.907 523.434 134.008C528.616 136.11 533.091 139.027 536.859 142.759L526.858 152.924C524.358 149.952 521.35 147.633 517.835 145.966C514.32 144.299 510.461 143.466 506.258 143.466C502.272 143.466 498.576 144.209 495.17 145.695C491.8 147.18 488.864 149.264 486.364 151.945C483.864 154.627 481.907 157.779 480.494 161.403C479.117 165.027 478.428 168.976 478.428 173.252C478.428 177.528 479.117 181.478 480.494 185.101C481.907 188.689 483.864 191.841 486.364 194.559C488.864 197.241 491.8 199.324 495.17 200.81C498.576 202.296 502.272 203.038 506.258 203.038C510.461 203.038 514.32 202.205 517.835 200.538C521.35 198.871 524.358 196.552 526.858 193.581L536.968 203.691ZM614.315 214.018H598.389L580.506 183.362H562.786V214.018H548.437V132.486H580.778C587.119 132.486 592.536 133.501 597.03 135.53C601.523 137.559 604.984 140.476 607.412 144.281C609.839 148.05 611.053 152.598 611.053 157.924C611.053 163.577 609.658 168.378 606.868 172.328C604.078 176.242 600.128 179.104 595.019 180.916L614.315 214.018ZM562.786 171.622H579.745C584.999 171.622 589.076 170.462 591.975 168.143C594.91 165.824 596.378 162.563 596.378 158.359C596.378 154.156 594.928 150.894 592.029 148.575C589.13 146.256 585.036 145.097 579.745 145.097H562.786V171.622ZM624.424 214.018V132.486H676.116V145.097H638.774V166.567H673.941V179.123H638.774V201.408H676.659V214.018H624.424ZM700.14 214.018H685.084L717.914 132.486H733.188L765.963 214.018H750.907L743.461 194.994H707.587L700.14 214.018ZM712.316 182.438H738.732L725.524 148.684L712.316 182.438ZM802.707 214.018H788.358V145.097H763.572V132.486H827.438V145.097H802.707V214.018ZM836.081 214.018V132.486H850.43V214.018H836.081ZM908.1 214.018H892.772L859.997 132.486H875.107L900.436 197.82L925.82 132.486H940.876L908.1 214.018ZM950.442 214.018V132.486H1002.13V145.097H964.792V166.567H999.959V179.123H964.792V201.408H1002.68V214.018H950.442ZM481.255 314.018H466.905V232.486H481.255V267.545H519.901V232.486H534.25V314.018H519.901V280.155H481.255V314.018ZM619.043 232.486V277.438C619.043 285.337 617.63 292.149 614.804 297.875C612.014 303.6 607.991 308.003 602.737 311.083C597.483 314.127 591.196 315.649 583.876 315.649C576.593 315.649 570.324 314.127 565.069 311.083C559.815 308.003 555.775 303.6 552.948 297.875C550.158 292.149 548.763 285.337 548.763 277.438V232.486H563.113V275.807C563.113 281.713 563.91 286.696 565.504 290.754C567.099 294.813 569.436 297.875 572.516 299.94C575.632 302.006 579.419 303.038 583.876 303.038C588.369 303.038 592.156 302.006 595.236 299.94C598.352 297.875 600.708 294.813 602.302 290.754C603.897 286.696 604.694 281.713 604.694 275.807V232.486H619.043ZM633.556 314.018V232.486H663.342C671.749 232.486 678.308 234.334 683.019 238.031C687.766 241.69 690.139 246.782 690.139 253.304C690.139 257.544 689.124 261.276 687.095 264.501C685.066 267.69 682.348 270.063 678.942 271.622C683.689 272.926 687.403 275.281 690.085 278.688C692.766 282.094 694.107 286.279 694.107 291.244C694.107 295.809 692.984 299.813 690.737 303.256C688.49 306.662 685.32 309.307 681.225 311.192C677.166 313.076 672.383 314.018 666.875 314.018H633.556ZM647.906 267.219H662.581C666.712 267.219 669.973 266.222 672.365 264.229C674.757 262.2 675.952 259.464 675.952 256.022C675.952 252.652 674.72 249.989 672.256 248.032C669.829 246.075 666.495 245.097 662.255 245.097H647.906V267.219ZM647.906 301.408H663.397C666.658 301.408 669.484 300.919 671.876 299.94C674.267 298.926 676.116 297.531 677.42 295.755C678.761 293.943 679.431 291.823 679.431 289.395C679.431 287.04 678.815 285.011 677.583 283.308C676.351 281.568 674.612 280.246 672.365 279.34C670.118 278.398 667.437 277.927 664.321 277.927H647.906V301.408Z" fill="white"/>
<path d="M726.58 269.77H720.207V239.162H709.2V233.562H737.562V239.162H726.58V269.77ZM773.128 269.77H766.055L758.114 256.156H750.245V269.77H743.872V233.562H758.235C761.051 233.562 763.456 234.013 765.452 234.914C767.447 235.815 768.984 237.11 770.062 238.8C771.14 240.474 771.68 242.493 771.68 244.859C771.68 247.369 771.06 249.501 769.821 251.255C768.582 252.993 766.828 254.265 764.559 255.069L773.128 269.77ZM750.245 250.942H757.776C760.109 250.942 761.92 250.427 763.207 249.397C764.51 248.367 765.162 246.919 765.162 245.052C765.162 243.185 764.519 241.737 763.231 240.707C761.944 239.677 760.125 239.162 757.776 239.162H750.245V250.942ZM784.314 269.77H777.627L792.207 233.562H798.99L813.545 269.77H806.859L803.552 261.321H787.621L784.314 269.77ZM789.721 255.745H801.452L795.586 240.755L789.721 255.745ZM819.975 269.77V233.562H831.369C835.762 233.562 839.56 234.294 842.762 235.759C845.964 237.223 848.435 239.315 850.173 242.035C851.91 244.738 852.779 247.948 852.779 251.666C852.779 255.367 851.91 258.577 850.173 261.297C848.435 264.017 845.964 266.109 842.762 267.573C839.56 269.037 835.762 269.77 831.369 269.77H819.975ZM826.348 264.169H831.61C834.716 264.169 837.355 263.687 839.528 262.721C841.716 261.74 843.382 260.315 844.524 258.449C845.683 256.582 846.262 254.321 846.262 251.666C846.262 249.011 845.683 246.75 844.524 244.883C843.382 243.016 841.716 241.6 839.528 240.635C837.355 239.653 834.716 239.162 831.61 239.162H826.348V264.169ZM860.296 269.77V233.562H866.669V269.77H860.296ZM908.003 269.77H900.81L881.934 243.435V269.77H875.561V233.562H882.754L901.631 259.921V233.562H908.003V269.77ZM943.472 241.986C942.329 240.844 940.962 239.967 939.368 239.355C937.791 238.744 936.11 238.438 934.324 238.438C932.505 238.438 930.84 238.752 929.327 239.379C927.83 240.007 926.535 240.908 925.441 242.083C924.346 243.242 923.502 244.625 922.906 246.235C922.311 247.828 922.013 249.598 922.013 251.545C922.013 253.508 922.311 255.311 922.906 256.952C923.518 258.577 924.37 259.985 925.465 261.176C926.575 262.367 927.887 263.284 929.399 263.928C930.912 264.572 932.578 264.894 934.396 264.894C935.973 264.894 937.421 264.652 938.741 264.169C940.06 263.671 941.219 262.963 942.217 262.045C943.231 261.112 944.059 259.994 944.703 258.69C945.347 257.387 945.773 255.938 945.982 254.345H934.541V249.421H951.607L951.776 251.835C951.776 254.587 951.349 257.105 950.496 259.39C949.659 261.659 948.461 263.63 946.9 265.304C945.339 266.961 943.488 268.241 941.348 269.142C939.207 270.043 936.842 270.494 934.251 270.494C931.58 270.494 929.102 270.019 926.816 269.07C924.547 268.12 922.56 266.801 920.854 265.111C919.165 263.405 917.845 261.41 916.896 259.125C915.962 256.839 915.496 254.353 915.496 251.666C915.496 248.994 915.962 246.516 916.896 244.231C917.845 241.93 919.157 239.927 920.83 238.221C922.52 236.515 924.499 235.195 926.768 234.262C929.053 233.313 931.523 232.838 934.179 232.838C936.705 232.838 939.119 233.272 941.42 234.141C943.737 235.01 945.805 236.258 947.624 237.883L943.472 241.986ZM742.921 309.183C741.248 310.857 739.252 312.16 736.935 313.094C734.634 314.027 732.115 314.494 729.38 314.494C726.66 314.494 724.142 314.027 721.824 313.094C719.507 312.16 717.495 310.849 715.79 309.159C714.084 307.453 712.756 305.458 711.807 303.173C710.874 300.872 710.407 298.369 710.407 295.666C710.407 292.946 710.874 290.444 711.807 288.159C712.756 285.874 714.084 283.886 715.79 282.197C717.495 280.491 719.507 279.171 721.824 278.238C724.142 277.305 726.66 276.838 729.38 276.838C732.099 276.838 734.61 277.305 736.911 278.238C739.212 279.171 741.199 280.467 742.873 282.124L738.431 286.638C737.321 285.319 735.985 284.289 734.424 283.548C732.864 282.808 731.15 282.438 729.283 282.438C727.513 282.438 725.871 282.768 724.359 283.428C722.862 284.087 721.559 285.013 720.448 286.204C719.338 287.394 718.469 288.794 717.841 290.404C717.23 292.013 716.924 293.767 716.924 295.666C716.924 297.565 717.23 299.319 717.841 300.928C718.469 302.521 719.338 303.921 720.448 305.128C721.559 306.319 722.862 307.244 724.359 307.904C725.871 308.564 727.513 308.894 729.283 308.894C731.15 308.894 732.864 308.523 734.424 307.783C735.985 307.043 737.321 306.013 738.431 304.694L742.921 309.183ZM750.486 313.77V277.562H773.442V283.162H756.859V292.697H772.476V298.273H756.859V308.169H773.683V313.77H750.486ZM814.8 313.77H807.607L788.731 287.435V313.77H782.358V277.562H789.552L808.428 303.921V277.562H814.8V313.77ZM838.465 313.77H832.093V283.162H821.086V277.562H849.448V283.162H838.465V313.77ZM855.758 313.77V277.562H878.714V283.162H862.131V292.697H877.748V298.273H862.131V308.169H878.955V313.77H855.758ZM916.886 313.77H909.813L901.872 300.156H894.003V313.77H887.63V277.562H901.993C904.809 277.562 907.215 278.013 909.21 278.914C911.205 279.815 912.742 281.11 913.82 282.8C914.899 284.474 915.438 286.493 915.438 288.859C915.438 291.369 914.818 293.501 913.579 295.255C912.34 296.993 910.586 298.265 908.317 299.069L916.886 313.77ZM894.003 294.942H901.534C903.867 294.942 905.678 294.427 906.965 293.397C908.269 292.367 908.92 290.919 908.92 289.052C908.92 287.185 908.277 285.737 906.989 284.707C905.702 283.677 903.883 283.162 901.534 283.162H894.003V294.942Z" fill="white"/>
<path d="M247.626 368.609C243.151 373.084 235.5 369.915 235.5 363.586V236.307C235.5 232.384 238.68 229.204 242.603 229.204H369.882C376.211 229.204 379.38 236.855 374.905 241.33L247.626 368.609Z" fill="white"/>
<path d="M215.77 229.204C219.692 229.204 222.873 232.384 222.873 236.307V363.586C222.873 369.915 215.222 373.084 210.747 368.609L83.4677 241.33C78.993 236.855 82.1622 229.204 88.4903 229.204H215.77Z" fill="white"/>
<path d="M222.873 209.474C222.873 213.397 219.692 216.577 215.77 216.577H88.4903C82.1622 216.577 78.993 208.926 83.4677 204.451L210.747 77.1718C215.222 72.6972 222.873 75.8663 222.873 82.1944V209.474Z" fill="white"/>
<rect x="235.541" y="185.049" width="31.5689" height="31.5689" rx="4.73533" fill="white"/>
<rect width="31.5689" height="31.5689" rx="4.73533" transform="matrix(-1 0 0 1 374.444 185.049)" fill="white"/>
<rect x="361.816" y="115.597" width="12.6275" height="12.6275" rx="4.73533" fill="white"/>
<rect x="235.541" y="115.597" width="12.6275" height="12.6275" rx="4.73533" fill="white"/>
<path d="M235.541 139.274C235.541 136.659 237.661 134.539 240.276 134.539L243.433 134.539C246.048 134.539 248.168 136.659 248.168 139.274V161.372C248.168 163.987 250.288 166.107 252.904 166.107L281.316 166.107C283.931 166.107 286.051 168.228 286.051 170.843V211.882C286.051 214.498 283.931 216.618 281.316 216.618H278.159C275.543 216.618 273.423 214.498 273.423 211.882V183.47C273.423 180.855 271.303 178.735 268.688 178.735H247.567H240.276C237.661 178.735 235.541 176.615 235.541 174V139.274Z" fill="white"/>
<path d="M374.444 139.274C374.444 136.659 372.324 134.539 369.708 134.539L366.551 134.539C363.936 134.539 361.816 136.659 361.816 139.274V161.372C361.816 163.987 359.696 166.107 357.081 166.107L328.669 166.107C326.054 166.107 323.933 168.228 323.933 170.843V211.882C323.933 214.498 326.054 216.618 328.669 216.618H331.826C334.441 216.618 336.561 214.498 336.561 211.882V183.47C336.561 180.855 338.681 178.735 341.296 178.735H362.417H369.708C372.324 178.735 374.444 176.615 374.444 174V139.274Z" fill="white"/>
</svg>
