<svg width="581" height="169" viewBox="0 0 581 169" fill="none" xmlns="http://www.w3.org/2000/svg">
<path fill-rule="evenodd" clip-rule="evenodd" d="M340.194 146.45C336.754 152.063 333.257 157.659 329.706 163.237C327.863 166.083 327.884 167.274 328.841 167.253C329.968 167.228 331.839 165.102 334.654 160.648C334.87 160.642 335.086 160.637 335.302 160.631L334.699 161.583C331.775 166.157 330.138 167.948 327.9 167.996C326.83 168.018 326.188 167.091 326.419 165.607C324.968 167.343 323.778 168.075 322.34 168.099C321.166 168.118 320.5 166.979 320.995 165.229C319.929 166.433 318.127 168.16 316.128 168.18C314.164 168.196 313.572 166.797 313.877 164.954C312.084 167.279 310.753 168.222 309.132 168.229C307.872 168.233 307.22 167.002 307.818 165.136C305.815 166.921 303.475 168.24 301.268 168.232C297.983 168.214 296.958 166.284 297.302 163.993C296.56 164.698 295.677 165.182 294.518 165.172C294.126 165.169 293.781 165.081 293.479 164.906C292.029 166.932 290.101 168.186 288.535 168.162C288.101 168.156 287.713 168.021 287.367 167.846C286.261 167.189 285.873 165.624 286.196 163.791C284.036 166.298 281.246 168.546 277.969 168.467C274.359 168.376 275.032 164.523 276.546 164.562C277.715 164.593 277.724 165.993 277.154 166.191C276.728 166.342 276.504 166.185 276.419 166.097L276.378 166.045C276.378 166.045 276.214 167.276 277.78 167.314C280.819 167.387 281.169 163.181 281.423 159.404C281.426 159.245 281.429 159.11 281.449 158.963L281.477 158.811C281.003 159.466 280.529 160.122 280.053 160.777C279.838 160.772 279.622 160.768 279.406 160.763C280.15 159.718 280.892 158.67 281.632 157.623C281.677 157.538 281.719 157.496 281.764 157.456C282.316 155.767 283.359 155.107 284.132 155.121C284.691 155.132 285.242 155.481 285.448 155.995C283.054 155.4 283.42 158.635 283.306 162.247C283.254 164.967 282.804 165.853 282.043 166.899C283.358 166.092 284.948 164.574 286.492 162.613C286.732 161.872 287.077 161.111 287.528 160.366C289.079 157.882 291.247 156.339 292.966 156.357L293.112 156.363C293.458 156.386 293.824 156.48 294.124 156.668C295.875 157.703 295.855 161.061 293.964 164.147C294.091 164.361 294.348 164.534 294.608 164.536C295.783 164.547 296.662 163.987 297.555 162.914C298.536 159.795 301.657 156.462 304.872 156.465L305.109 156.47C309.963 156.68 306.518 163.648 303.185 163.646C300.375 163.639 302.205 159.269 304.054 159.27C304.485 159.271 304.785 159.523 304.785 159.95C303.754 160.289 301.458 163.005 303.315 163.009C305.526 163.013 308.446 157.734 305.604 157.738C301.496 157.743 295.327 167.567 301.442 167.596C303.551 167.604 306.253 165.934 308.42 163.784C308.525 163.598 308.64 163.408 308.767 163.215C310.696 160.331 313.235 156.463 313.254 156.432C314.056 156.426 314.858 156.417 315.66 156.409C314.108 158.777 312.546 161.142 310.973 163.503C309.128 166.317 309.127 167.507 310.04 167.503C310.933 167.498 312.314 166.182 314.287 163.446C315.494 160.167 318.765 156.38 322.024 156.328C324.385 156.289 324.508 158.198 324.314 159.436C325 158.375 325.684 157.313 326.366 156.251C327.167 156.235 327.969 156.218 328.771 156.2C327.247 158.586 325.713 160.97 324.169 163.35C322.313 166.187 322.327 167.375 323.284 167.36C324.088 167.346 325.273 166.266 326.916 164.04C327.071 163.704 327.262 163.352 327.491 162.987C329.416 160.069 337.881 146.533 337.851 146.523C338.632 146.499 339.413 146.476 340.194 146.45ZM322.678 156.828C319.478 156.887 312.702 167.278 316.596 167.239C318.725 167.217 321.625 163.648 322.422 162.4C322.562 162.172 322.703 161.943 322.843 161.714C323.477 160.768 323.801 159.658 323.782 158.553C323.765 157.618 323.537 156.814 322.678 156.828ZM293.55 158.022C292.388 158.01 290.738 159.352 289.457 161.417C287.953 163.861 287.65 166.404 288.77 167.018C288.944 167.147 289.16 167.192 289.377 167.195C290.373 167.21 291.821 166.165 292.964 164.52C292.064 163.574 292.302 161.835 293.64 161.849C293.9 161.852 294.115 161.939 294.287 162.11C294.996 160.247 295.008 158.63 294.15 158.154C293.979 158.069 293.766 158.024 293.55 158.022Z" fill="black"/>
<path fill-rule="evenodd" clip-rule="evenodd" d="M442.282 138.279C439.775 143.355 437.226 148.423 434.635 153.482C434.64 153.483 438.573 148.262 441.427 147.898C443.223 147.672 443.716 149.15 442.925 150.793C441.745 153.157 440.555 155.519 439.357 157.879C438.792 158.976 439.133 159.276 439.695 159.207C440.968 159.051 442.833 157.188 444.589 154.331C445.477 150.983 448.224 147.026 451.381 146.6C453.729 146.281 454.076 148.161 454.03 149.413C454.586 148.278 455.141 147.143 455.694 146.008C456.49 145.897 457.286 145.785 458.082 145.673C456.847 148.223 455.602 150.77 454.347 153.316C452.835 156.353 452.99 157.533 453.94 157.404C455.06 157.252 456.683 154.927 458.982 150.182C459.197 150.152 459.411 150.121 459.625 150.091C456.931 155.754 455.46 157.927 453.089 158.25C451.923 158.407 451.125 157.355 451.411 155.56C450.493 156.882 448.903 158.809 446.917 159.066C444.839 159.332 444.117 157.82 444.321 155.765C442.901 157.877 441.126 159.804 439.227 160.036C437.152 160.288 436.594 158.9 437.896 156.302C438.825 154.477 439.747 152.649 440.664 150.822C441.228 149.765 441.143 149.092 440.416 149.182C439.27 149.331 434.297 154.213 433.081 156.576C432.31 158.065 431.535 159.554 430.756 161.041C429.963 161.132 429.17 161.221 428.377 161.311C428.815 160.47 429.251 159.63 429.687 158.789C428.061 160.376 426.193 161.556 424.313 161.76C421.167 162.094 419.905 160.438 419.891 158.251C418.095 161.286 416.772 162.553 414.966 162.735C413.9 162.842 413.186 161.967 413.3 160.469C411.987 162.315 410.856 163.139 409.423 163.276C408.254 163.387 407.498 162.304 407.854 160.521C406.884 161.806 405.222 163.67 403.23 163.848C401.153 164.029 400.491 162.501 400.769 160.466C399.283 162.509 397.458 164.35 395.56 164.506C393.478 164.676 392.932 163.268 394.378 160.722C395.822 158.173 396.797 156.384 397.359 155.357C397.746 154.644 397.964 153.756 397.495 153.691L397.393 153.69C396.278 153.785 393.512 157.426 391.979 160.062C391.04 161.714 390.094 163.366 389.146 165.015C388.337 165.077 387.527 165.138 386.718 165.198C388.416 162.23 390.099 159.258 391.767 156.283C392.254 155.349 392.73 154.288 392.043 154.343C390.975 154.431 387.934 158.163 386.457 160.53C385.522 162.162 384.584 163.793 383.64 165.423C382.845 165.48 382.049 165.536 381.253 165.591C383.613 161.493 385.944 157.388 388.247 153.276C389.061 153.213 389.876 153.15 390.691 153.086L389.133 155.809C390.491 154.34 392.065 152.978 393.395 152.87C394.85 152.751 395.068 153.798 394.727 154.894C395.833 153.651 397.123 152.561 398.236 152.466C400.038 152.311 400.471 153.807 399.617 155.417C398.345 157.732 397.065 160.044 395.775 162.355C395.168 163.429 395.497 163.743 396.061 163.696C397.295 163.594 399.236 161.822 401.082 159.063C402.09 155.744 405 151.869 408.182 151.567C410.534 151.343 410.808 153.234 410.712 154.484C411.313 153.372 411.911 152.26 412.508 151.148C413.306 151.069 414.104 150.989 414.904 150.908C413.57 153.407 412.227 155.903 410.873 158.397C409.245 161.371 409.354 162.557 410.307 162.466C411.109 162.389 412.208 161.214 413.677 158.856C413.805 158.512 413.966 158.151 414.164 157.774C416.304 153.774 418.417 149.767 420.504 145.754C419.764 145.833 419.025 145.91 418.286 145.988C418.266 145.804 418.247 145.621 418.228 145.438C419.095 145.347 419.961 145.255 420.828 145.162C421.625 143.624 422.418 142.085 423.208 140.545C423.986 140.46 424.763 140.373 425.541 140.286L424.878 141.61C424.459 142.437 423.867 143.592 423.171 144.908C424.293 144.786 425.414 144.661 426.535 144.535C426.556 144.718 426.576 144.903 426.597 145.086C425.361 145.225 424.125 145.361 422.889 145.496C420.752 149.62 418.586 153.739 416.393 157.85C414.779 160.831 414.893 162.017 415.846 161.921C416.793 161.825 418.148 160.198 420.025 156.895C420.652 153.684 423.388 150.019 426.591 149.662C431.767 149.075 429.082 156.614 425.71 156.987C422.913 157.294 424.248 152.747 426.089 152.543C426.518 152.495 426.845 152.714 426.893 153.138C425.903 153.59 423.921 156.545 425.771 156.341C427.971 156.097 430.291 150.527 427.461 150.848C423.373 151.31 418.326 161.76 424.417 161.107C426.429 160.889 428.813 159.079 430.696 156.835C433.828 150.762 436.9 144.676 439.911 138.579C440.702 138.48 441.492 138.379 442.282 138.279ZM408.871 152.015C405.682 152.328 399.741 163.217 403.623 162.872C405.746 162.683 408.358 158.897 409.056 157.59C409.178 157.351 409.3 157.11 409.422 156.871C409.98 155.878 410.215 154.745 410.109 153.646C410.02 152.715 409.727 151.933 408.871 152.015ZM452.091 147.019C448.913 147.457 443.403 158.579 447.271 158.078C449.389 157.803 451.85 153.915 452.496 152.582C452.609 152.338 452.721 152.094 452.834 151.85C453.351 150.836 453.544 149.694 453.394 148.599C453.267 147.673 452.945 146.902 452.091 147.019Z" fill="black"/>
<path fill-rule="evenodd" clip-rule="evenodd" d="M160.294 145.815C163.36 142.365 166.534 140.118 168.782 140.4C173.083 140.938 164.821 151.311 159.671 149.505C159.31 149.928 158.948 150.352 158.586 150.775C159.008 150.875 159.316 151.174 159.486 151.538C159.698 151.911 159.686 152.338 159.55 152.705C159.736 152.944 160.229 153.182 160.83 153.261C161.414 153.337 162.1 153.279 162.779 152.951C164.66 150.296 167.858 147.872 170.662 148.218C173.012 148.507 172.869 150.412 172.506 151.611C173.332 150.655 174.157 149.699 174.979 148.741C175.777 148.836 176.576 148.931 177.374 149.024C175.532 151.177 173.681 153.326 171.819 155.469C169.588 158.021 169.436 159.2 170.388 159.317C170.96 159.387 171.8 158.943 172.943 157.96C173.138 157.557 173.446 157.257 173.803 157.174C174.735 156.277 175.83 155.095 177.098 153.615C177.169 153.624 177.242 153.631 177.313 153.64C178.152 152.668 178.989 151.695 179.824 150.722C179.876 150.642 179.925 150.603 179.972 150.568C180.68 148.936 181.782 148.378 182.551 148.464C183.106 148.526 183.623 148.925 183.782 149.456C181.45 148.642 181.513 151.896 181.064 155.481C180.758 158.185 180.228 159.024 179.373 159.996C179.797 159.787 180.252 159.514 180.73 159.185C185.707 153.324 190.612 147.432 195.444 141.507C196.236 141.588 197.029 141.667 197.821 141.746C194.243 146.132 190.625 150.501 186.968 154.851C187.022 154.813 191.988 150.646 194.836 150.929C196.633 151.11 196.784 152.661 195.646 154.085C193.967 156.125 192.279 158.16 190.584 160.192C189.788 161.136 190.054 161.504 190.616 161.562C191.685 161.673 193.428 160.707 195.35 158.981C195.562 158.619 195.824 158.24 196.14 157.852C198.366 155.17 201.304 151.562 201.304 151.562C202.104 151.638 202.903 151.714 203.702 151.789C201.914 153.985 200.116 156.177 198.309 158.363C196.182 160.973 196.061 162.158 196.971 162.248C197.984 162.346 199.8 160.82 202.59 157.522C202.858 156.955 203.191 156.386 203.588 155.832C205.325 153.474 207.607 152.102 209.321 152.251C209.706 152.285 210.128 152.408 210.452 152.649C212.121 153.816 211.845 157.161 209.722 160.095C209.833 160.318 210.078 160.509 210.336 160.531C211.002 160.588 211.586 160.452 212.146 160.142C214.044 157.767 215.931 155.388 217.806 153.004L220.209 153.192C219.029 154.678 217.845 156.163 216.657 157.645C216.692 157.621 221.555 153.303 224.412 153.511C226.212 153.643 226.404 155.189 225.305 156.644C223.684 158.728 222.053 160.808 220.415 162.885C219.644 163.85 219.921 164.212 220.484 164.255C222.087 164.378 225.141 162.049 227.995 158.371L228.642 158.416C226.698 160.923 222.988 165.216 219.863 164.975C217.781 164.814 217.507 163.341 219.295 161.052C220.564 159.445 221.828 157.837 223.087 156.226C223.848 155.302 223.897 154.623 223.168 154.568C222.015 154.488 216.182 158.295 214.526 160.371C213.477 161.679 212.424 162.984 211.368 164.289C210.573 164.221 209.779 164.153 208.985 164.084C209.796 163.079 210.603 162.072 211.409 161.065C211.034 161.159 210.632 161.196 210.195 161.159C209.806 161.125 209.468 161.012 209.18 160.815C207.578 162.723 205.558 163.825 203.998 163.682C203.565 163.642 203.188 163.479 202.857 163.278C201.78 162.523 201.524 160.881 202.028 159.03C199.46 161.965 197.855 163.061 195.991 162.878C194.867 162.767 194.33 161.717 194.796 160.208C193.218 161.491 191.512 162.427 189.976 162.266C187.897 162.048 187.665 160.569 189.515 158.329C190.828 156.758 192.136 155.184 193.438 153.608C194.175 152.762 194.281 152.113 193.69 151.975L193.563 151.954C192.413 151.841 186.475 155.487 184.763 157.519C183.678 158.797 182.588 160.074 181.496 161.349C180.704 161.26 179.911 161.17 179.119 161.08C179.365 160.792 179.609 160.503 179.854 160.215C178.387 160.962 176.809 161.372 175.162 161.178C173.315 160.958 172.692 159.851 172.727 158.854C171.514 159.739 170.477 160.058 169.349 159.919C168.255 159.784 167.744 158.703 168.287 157.197L168.41 156.891C167.188 157.936 165.161 159.396 163.173 159.14C160.715 158.817 160.728 156.571 162.001 154.196C161.533 154.38 161.078 154.451 160.638 154.393C160.111 154.323 159.605 154.092 159.154 153.675L158.965 153.484C158.614 156.527 153.238 164.383 149.796 163.896C147.276 163.54 147.818 159.841 151.57 155.647C154.501 152.381 157.41 149.104 160.294 145.815ZM209.777 153.956C208.618 153.855 206.868 155.066 205.431 157.027C203.745 159.349 203.247 161.862 204.32 162.559C204.481 162.701 204.693 162.763 204.909 162.783C205.905 162.873 207.428 161.943 208.696 160.389C207.87 159.377 208.241 157.661 209.575 157.778C209.833 157.801 210.041 157.904 210.199 158.088C211.049 156.284 211.185 154.674 210.367 154.134C210.202 154.036 209.991 153.974 209.777 153.956ZM156.987 152.575C155.542 154.209 154.092 155.842 152.635 157.47C150.395 159.992 148.983 162.453 150.63 162.684C153.067 163.027 158.003 156.489 158.062 153.363C157.59 153.3 157.194 152.988 156.987 152.575ZM177.958 153.715L177.741 153.69C176.494 155.168 175.443 156.354 174.517 157.279C175.227 157.657 175.069 158.711 174.563 158.836C173.978 158.982 173.802 158.617 173.802 158.617C173.802 158.617 173.527 159.828 175.081 160.012C178.107 160.367 178.846 156.211 179.449 152.476C179.473 152.265 179.493 152.095 179.561 151.89C179.027 152.498 178.493 153.107 177.958 153.715ZM171.241 148.804C168.057 148.419 159.897 157.772 163.767 158.272C165.885 158.545 169.254 155.411 170.218 154.286C170.389 154.079 170.56 153.871 170.731 153.664C171.489 152.815 171.966 151.76 172.1 150.663C172.212 149.734 172.097 148.908 171.241 148.804ZM168.851 141.566C167.54 141.403 163.056 145.669 161.506 147.477C161.158 147.816 160.689 148.399 160.124 149.051C164.786 150.144 170.602 141.785 168.851 141.566Z" fill="black"/>
<path d="M250.495 158.904C251.375 157.715 252.658 157.011 253.777 157.062C254.164 157.08 254.546 157.224 254.881 157.455C256.092 158.317 256.136 160.319 254.892 161.966C254.015 163.159 252.725 163.824 251.601 163.769C251.168 163.748 250.784 163.601 250.448 163.372C249.231 162.545 249.247 160.545 250.495 158.904Z" fill="black"/>
<path d="M360.18 156.848C360.569 156.829 360.96 156.935 361.317 157.131C362.604 157.872 362.844 159.859 361.766 161.619C361.008 162.892 359.789 163.677 358.662 163.732C358.229 163.754 357.834 163.646 357.479 163.45C356.186 162.745 356.01 160.753 357.093 158.999C357.854 157.73 359.062 156.905 360.18 156.848Z" fill="black"/>
<path d="M314.683 152.849C314.85 152.211 315.574 151.819 316.261 151.981C316.905 152.274 317.171 153.036 316.877 153.677C316.671 154.359 315.988 154.749 315.3 154.543C314.654 154.251 314.39 153.49 314.683 152.849Z" fill="black"/>
<path d="M203.093 148.146C203.324 147.528 204.084 147.212 204.751 147.444C205.364 147.799 205.55 148.586 205.193 149.193C204.918 149.851 204.199 150.169 203.533 149.894C202.919 149.537 202.735 148.751 203.093 148.146Z" fill="black"/>
<path d="M232.14 0.978516C225.932 1.72551 223.197 6.0105 223.197 12.6084V95.3447C223.197 128.015 259.628 126.278 259.628 95.3447V12.6084C259.628 6.0075 256.909 1.72551 250.697 0.978516H269.892C263.663 1.72551 260.946 6.0105 260.946 12.6084V95.3447C260.946 130.717 214.005 130.717 214.005 95.3447V12.6084C214.005 6.0075 211.271 1.72551 205.06 0.978516H232.14Z" fill="black"/>
<path d="M450.049 0.978516C443.841 1.72551 441.107 6.0105 441.107 12.6084V95.3447C441.108 128.015 477.536 126.278 477.536 95.3447V12.6084C477.536 6.0075 474.819 1.72551 468.605 0.978516H487.801C481.572 1.72551 478.856 6.0105 478.855 12.6084V95.3447C478.855 130.717 431.913 130.717 431.913 95.3447V12.6084C431.913 6.00758 429.179 1.72559 422.968 0.978516H450.049Z" fill="black"/>
<path fill-rule="evenodd" clip-rule="evenodd" d="M99.6777 0.000976562C141.199 0.000976562 141.199 121.866 99.6777 121.866C58.1398 121.866 58.1398 0.00109596 99.6777 0.000976562ZM99.6777 1.32129C70.4858 1.38346 70.4858 120.608 99.6777 120.545C128.918 120.545 128.918 1.32129 99.6777 1.32129Z" fill="black"/>
<path d="M172.301 0C177.21 0 181.524 1.7081 185.268 4.70605C187.426 6.43 190.33 8.49475 192.442 4.90625L192.528 17.1094C192.555 21.176 192.583 25.2408 192.614 29.3018C190.44 17.0498 182.132 1.32129 172.303 1.32129C143.112 1.38342 143.112 120.608 172.303 120.545C183.61 120.545 185.657 109.226 185.86 99.1943C185.86 85.4441 185.861 48.6767 185.83 48.6328C185.83 42.0319 183.096 37.7646 176.885 37.0176H203.965C197.769 37.7646 195.038 42.0181 195.038 48.6191C195.038 72.72 195.068 96.7718 195.068 120.888C193.858 116.337 189.633 114.099 185.752 117.316C182.335 120.173 177.895 121.866 172.303 121.866C130.78 121.866 130.78 0 172.301 0Z" fill="black"/>
<path d="M396.218 0C401.109 0 405.426 1.70805 409.168 4.70605C411.325 6.43001 414.231 8.49487 416.343 4.90625C416.406 13.0431 416.465 21.1799 416.514 29.3018C414.339 17.0498 406.033 1.32129 396.218 1.32129C378.517 1.35354 371.545 45.1709 375.302 79.6758C380.304 125.483 413.457 128.993 418.967 92.2686C418.967 106.741 410.255 121.866 396.218 121.866C354.681 121.866 354.681 0.000298506 396.218 0Z" fill="black"/>
<path d="M28.6182 0.976562C22.4072 1.72256 19.2543 6.11755 20.5283 12.5605L40.2021 112.281L58.7734 12.5605C60.0474 6.11755 56.8936 1.72256 50.6826 0.976562H71.4297C65.327 1.72267 61.4753 6.14938 60.1562 12.3281L41.0557 114.8C42.5307 118.14 44.8462 120.392 49.0371 120.888H32.7021L11.3506 12.6846C10.0936 6.30458 6.20999 1.72257 0 0.976562H28.6182Z" fill="black"/>
<path d="M317.261 31.3076C316.099 21.0957 311.688 2.87917 303.36 2.3125L302.961 2.2998H290.352V36.8662H291.657C298.255 36.866 302.604 31.0721 303.288 25.4512V49.582C302.615 44.05 298.393 38.3659 291.965 38.1895L291.657 38.1855H290.352V119.566H302.961C311.547 119.566 316.081 100.934 317.261 90.5752V120.888H272.214C278.425 120.141 281.141 115.871 281.141 109.271V12.6084C281.141 6.0114 278.425 1.72552 272.214 0.978516H317.261V31.3076Z" fill="black"/>
<path d="M517.204 0.978516C510.989 1.72552 508.273 6.0114 508.273 12.6084V119.566H519.238C527.824 119.566 532.358 100.932 533.524 90.5752V120.888H490.123C496.334 120.141 499.068 115.871 499.068 109.271V12.6084C499.068 6.0084 496.334 1.72552 490.123 0.978516H517.204Z" fill="black"/>
<path d="M580.458 31.3066C579.278 20.9326 574.758 2.29883 566.172 2.29883H559.68V109.271C559.68 115.872 562.4 120.14 568.611 120.888H541.53C547.741 120.14 550.473 115.872 550.473 109.271V2.29883H543.983C535.398 2.29883 530.861 20.9325 529.697 31.3066V0.979492H580.458V31.3066Z" fill="black"/>
</svg>
